<?xml version="1.0" encoding="UTF-8"?>
<svg width="28px" height="25px" viewBox="0 0 28 25" version="1.1" xmlns="http://www.w3.org/2000/svg" xmlns:xlink="http://www.w3.org/1999/xlink">
    <!-- Generator: Sketch 48.2 (47327) - http://www.bohemiancoding.com/sketch -->
    <title>live_tv - material - group</title>
    <desc>Created with Sketch.</desc>
    <defs></defs>
    <g id="Artboard" stroke="none" stroke-width="1" fill="none" fill-rule="evenodd" transform="translate(-1093.000000, -52.000000)">
        <g id="live_tv---material---group" transform="translate(1092.000000, 49.000000)">
            <path d="M11.02,12.96 L19.75,18 L11.02,22.98 L11.02,12.96 Z M26.02,25.5 L26.02,10.5 L3.52,10.5 L3.52,25.5 L26.02,25.5 Z M26.02,7.98 C26.7000034,7.98 27.2899975,8.22499755 27.79,8.715 C28.2900025,9.20500245 28.54,9.7999965 28.54,10.5 L28.54,25.5 C28.54,26.1800034 28.2900025,26.7599976 27.79,27.24 C27.2899975,27.7200024 26.7000034,27.96 26.02,27.96 L3.52,27.96 C2.8399966,27.96 2.2500025,27.7200024 1.75,27.24 C1.2499975,26.7599976 1,26.1800034 1,25.5 L1,10.5 C1,9.7999965 1.2499975,9.20500245 1.75,8.715 C2.2500025,8.22499755 2.8399966,7.98 3.52,7.98 L13,7.98 L8.92,3.87 L9.79,3 L14.77,7.98 L19.75,3 L20.62,3.87 L16.54,7.98 L26.02,7.98 Z" id="live_tv---material" fill="#BFBFBF"></path>
            <rect id="base" x="0" y="0" width="30" height="30"></rect>
        </g>
    </g>
</svg>