<?xml version="1.0" encoding="UTF-8"?>
<svg width="47px" height="60px" viewBox="0 0 47 60" version="1.1" xmlns="http://www.w3.org/2000/svg" xmlns:xlink="http://www.w3.org/1999/xlink">
    <!-- Generator: Sketch 48.2 (47327) - http://www.bohemiancoding.com/sketch -->
    <title>scientology-symbol</title>
    <desc>Created with Sketch.</desc>
    <defs></defs>
    <g id="Artboard" stroke="none" stroke-width="1" fill="none" fill-rule="evenodd" transform="translate(-10.000000, -28.000000)">
        <g id="scientology-symbol" transform="translate(10.000000, 28.000000)" fill="#D7E1EA">
            <g id="Shape">
                <path d="M16.2895354,5.55738462 C17.7142525,5.91784615 20.3111212,8.89569231 22.5253434,10.3015385 C24.7400404,11.7069231 26.8284545,12.6027692 29.664596,11.2241538 C32.012697,10.0823077 34.4994242,7.44646154 34.4994242,7.22630769 C34.4994242,7.00615385 34.680303,6.96230769 34.0028384,7.13861538 C33.3253737,7.31446154 31.0655758,7.22630769 27.1797677,4.986 C23.5147172,2.87307692 19.3174747,0.106153846 16.5159899,0.153692308 C11.3649798,0.240923077 8.5639697,3.88753846 8.5639697,3.88753846 L13.2758384,6.41446154 C13.2748889,6.41492308 14.5975354,5.12907692 16.2895354,5.55738462 Z" fill-rule="nonzero"></path>
                <path d="M32.9626667,38.8555385 C32.7366869,36.8344615 31.4273333,33.8912308 30.3430101,32.3538462 C29.2577374,30.816 15.6571717,13.5964615 15.6571717,13.5964615 L15.0338283,12.6396923 L6.69156566,8.35892308 L6.48457576,8.808 C6.48457576,8.808 6.07676768,9.59907692 6.16744444,11.0483077 C6.25717172,12.498 7.20619192,14.8712308 8.24588889,16.3643077 C9.28558586,17.8573846 23.0665556,36.5709231 25.1454747,39.5136923 C27.2243939,42.4583077 26.365101,44.3898462 25.8680404,45.1370769 C25.3714545,45.8847692 23.834697,46.6753846 21.9822323,46.3232308 C20.1297677,45.9710769 15.4307172,41.7544615 15.4307172,41.7544615 L15.4307172,50.1447692 C15.4307172,50.1447692 16.5824545,50.6261538 17.4882727,51.0156923 C18.3831717,51.4006154 22.6601717,53.7918462 28.2185152,50.0136923 C33.7763838,46.236 33.1881717,40.8761538 32.9626667,38.8555385 Z" fill-rule="nonzero"></path>
                <path d="M2.71080808,42.054 C1.09809091,43.6495385 0.0664646465,46.5872308 0.202717172,46.8064615 C0.308585859,46.8987692 1.91987879,46.2798462 4.90176768,46.2355385 C7.88413131,46.1907692 10.0076768,47.8181538 10.0076768,47.8181538 L10.0076768,39.5584615 C10.0081515,39.558 6.30939394,38.4946154 2.71080808,42.054 Z" fill-rule="nonzero"></path>
                <path d="M27.8947374,27.9715385 C30.1820707,30.8515385 30.9573333,31.7769231 31.3233636,32.3104615 C31.6893939,32.844 32.0549495,33.5192308 32.292798,34.0523077 L39.8987273,38.0672308 L34.1637778,41.5712308 C34.0436667,43.0855385 33.6325354,44.7161538 32.7566263,46.3855385 L46.7265455,37.8567692 L27.8947374,27.9715385 Z" fill-rule="nonzero"></path>
                <polygon fill-rule="nonzero" points="10.9771111 21.4832308 10.9771111 31.6956923 14.4119091 29.5970769 14.4119091 26.0990769"></polygon>
                <path d="M17.2603939,51.9 L14.4119091,53.6404615 L14.4119091,42.444 L14.4119091,40.4769231 L14.4119091,35.1253846 L10.9771111,37.2221538 L10.9771111,42.45 L10.9771111,49.2064615 L10.9771111,59.6806154 L21.9366566,52.9892308 C20.7165556,52.9518462 19.4746162,52.7289231 18.237899,52.3093846 C17.9369091,52.2083077 17.6045859,52.0624615 17.2603939,51.9 Z" fill-rule="nonzero"></path>
                <path d="M16.4708889,29.1004615 L5.38648485,35.8726154 L5.38648485,13.1566154 L5.38648485,6.91153846 L30.873303,20.2993846 L24.7666263,24.0309231 C25.4830202,24.9341538 26.1960909,25.8313846 26.8811515,26.6949231 L37.701596,20.0893846 L8.04317172,4.51938462 L6.97024242,3.95630769 L1.95121212,1.32138462 L1.95121212,41.9127692 L18.4914141,31.8156923 L16.4708889,29.1004615 Z" fill-rule="nonzero"></path>
            </g>
        </g>
    </g>
</svg>