<?xml version="1.0" encoding="UTF-8"?>
<svg width="22px" height="22px" viewBox="0 0 22 22" version="1.1" xmlns="http://www.w3.org/2000/svg" xmlns:xlink="http://www.w3.org/1999/xlink">
    <!-- Generator: Sketch 48.2 (47327) - http://www.bohemiancoding.com/sketch -->
    <title>search - material - group</title>
    <desc>Created with Sketch.</desc>
    <defs></defs>
    <g id="Artboard" stroke="none" stroke-width="1" fill="none" fill-rule="evenodd" transform="translate(-1138.000000, -55.000000)">
        <g id="search---material---group" transform="translate(1136.000000, 50.000000)">
            <path d="M10.16,18.77 C11.1800051,18.77 12.1199957,18.5150025 12.98,18.005 C13.8400043,17.4949974 14.5199975,16.8100043 15.02,15.95 C15.5200025,15.0899957 15.77,14.1500051 15.77,13.13 C15.77,12.1099949 15.5200025,11.1700043 15.02,10.31 C14.5199975,9.4499957 13.8400043,8.7700025 12.98,8.27 C12.1199957,7.7699975 11.1800051,7.52 10.16,7.52 C9.1399949,7.52 8.2000043,7.7699975 7.34,8.27 C6.4799957,8.7700025 5.79500255,9.4499957 5.285,10.31 C4.77499745,11.1700043 4.52,12.1099949 4.52,13.13 C4.52,14.1500051 4.77499745,15.0899957 5.285,15.95 C5.79500255,16.8100043 6.4799957,17.4949974 7.34,18.005 C8.2000043,18.5150025 9.1399949,18.77 10.16,18.77 Z M17.66,18.77 L23.87,24.98 L21.98,26.87 L15.77,20.63 L15.77,19.64 L15.41,19.31 C14.7099965,19.9300031 13.9050046,20.4049983 12.995,20.735 C12.0849954,21.0650016 11.1400049,21.23 10.16,21.23 C8.6799926,21.23 7.31500625,20.8700036 6.065,20.15 C4.81499375,19.4299964 3.8300036,18.4600061 3.11,17.24 C2.3699963,15.9799937 2,14.6100074 2,13.13 C2,11.6499926 2.36499635,10.2850063 3.095,9.035 C3.82500365,7.78499375 4.81499375,6.8000036 6.065,6.08 C7.31500625,5.3599964 8.6799926,5 10.16,5 C11.6400074,5 13.0099937,5.3699963 14.27,6.11 C15.4900061,6.8300036 16.4549964,7.8099938 17.165,9.05 C17.8750035,10.2900062 18.23,11.6499926 18.23,13.13 C18.23,14.130005 18.0650016,15.0849955 17.735,15.995 C17.4049983,16.9050046 16.9300031,17.7099965 16.31,18.41 L16.64,18.77 L17.66,18.77 Z" id="search---material" fill="#BFBFBF"></path>
            <rect id="base" x="0" y="0" width="30" height="30"></rect>
        </g>
    </g>
</svg>