<?xml version="1.0" encoding="UTF-8"?>
<svg width="19px" height="20px" viewBox="0 0 19 20" version="1.1" xmlns="http://www.w3.org/2000/svg" xmlns:xlink="http://www.w3.org/1999/xlink">
    <!-- Generator: Sketch 48.2 (47327) - http://www.bohemiancoding.com/sketch -->
    <title>volume_off - material</title>
    <desc>Created with Sketch.</desc>
    <defs></defs>
    <g id="Home" stroke="none" stroke-width="1" fill="none" fill-rule="evenodd" transform="translate(-1106.000000, -946.000000)">
        <g id="TV" transform="translate(796.000000, 742.000000)" fill="#FFFFFF">
            <path d="M319.113573,205.093333 L319.113573,209.786667 L317.007424,207.44 L319.113573,205.093333 Z M311.406981,204 L328.088643,222.586667 L326.820166,224 L324.761884,221.706667 C323.565202,222.737783 322.352582,223.413332 321.123989,223.733333 L321.123989,221.44 C321.921777,221.19111 322.671686,220.755559 323.37374,220.133333 L319.113573,215.413333 L319.113573,222.906667 L314.111468,217.333333 L310.138504,217.333333 L310.138504,210.666667 L314.853407,210.666667 L310.138504,205.413333 L311.406981,204 Z M326.078227,214 C326.078227,212.844439 325.866817,211.755561 325.443989,210.733333 C325.021161,209.711106 324.434796,208.835559 323.684875,208.106667 C322.934955,207.377774 322.081334,206.862224 321.123989,206.56 L321.123989,204.266667 C322.448317,204.586668 323.640992,205.217773 324.70205,206.16 C325.763108,207.102227 326.588806,208.239993 327.179169,209.573333 C327.785488,210.960007 328.088643,212.435548 328.088643,214 C328.088643,214.817782 328.000887,215.622218 327.825374,216.413333 C327.649861,217.204448 327.394572,217.946663 327.059501,218.64 L325.575623,216.906667 C325.910694,215.96444 326.078227,214.995561 326.078227,214 Z M323.613075,214 C323.613075,214.320002 323.597119,214.542222 323.565208,214.666667 L321.123989,211.973333 L321.123989,209.52 C321.889865,209.946669 322.496175,210.555552 322.942936,211.346667 C323.389698,212.137782 323.613075,213.022217 323.613075,214 Z" id="volume_off---material"></path>
        </g>
    </g>
</svg>