<?xml version="1.0" encoding="utf-8"?>
<svg version="1.1" id="HAPPY SCIENCE" xmlns="http://www.w3.org/2000/svg" xmlns:xlink="http://www.w3.org/1999/xlink" x="0px"
	 y="0px" width="150px" height="56.7px" viewBox="0 0 150 56.7" enable-background="new 0 0 150 56.7" xml:space="preserve">
<g>
	<path fill="#D5B329" d="M72.1,26.8c0,0.7,0,1.4,0,2c0.6,0.1,1.3,0.2,2,0.2c1.6,0,3.1-0.2,4.5-0.6
		c-0.4-0.5-0.7-1-1.1-1.5C75.7,27.3,73.8,27.3,72.1,26.8"/>
	<path fill="#D5B329" d="M68.3,25.1c-1.6-1.1-3-2.5-4.1-4.4c-3.7-6.4-2-13.8,3.5-17.2
		c5.6-3.4,12.9-1.4,16.6,4.7c3.6,6,1.9,13.7-3.5,17.1c0,0-0.1,0.1-0.1,0.1c0.4,0.5,0.7,0.9,1.1,1.4c4.2-2.5,7.1-7,7.2-12.2
		c0.2-8-6.3-14.6-14.3-14.7c-8.1-0.2-14.8,6.2-15,14.2c-0.1,6.2,3.4,11.3,8.6,13.5V25.1z"/>
	<path fill="#D5B329" d="M71.6,9.5c0,0,1.2,0,2.2,0c1,0,4.2-0.2,4.6,3.8c0.4,5-4.2,5.2-6.8,5.2L71.6,9.5
		z M76.8,21.4c-0.7-0.8-2-1.8-3-2.2c2.3,0.2,7.4-0.5,7.6-5.2c0.2-4.1-2.9-5.4-4.9-5.7c-0.8-0.1-2.3-0.1-3.2-0.1
		c-1.1,0.1-3.7,0.1-4.7-0.1c0.3,0.2,0.3,0.9,0.3,1.3l0,24.3c0,0.5-0.1,1.1-0.6,1.2h4c-0.4-0.2-0.6-0.5-0.6-1.2l0-15.3
		c0.8,1,11.3,14.6,12,15.5c0.5,0.7,0.6,0.8,1,1h4.1c-0.8-0.4-1.4-0.7-2-1.4C85.9,32.9,77.6,22.2,76.8,21.4"/>
	<path fill="#D5B329" d="M33.4,49.3C33.3,49.3,33.3,49.3,33.4,49.3c-0.6,0-1.1-0.1-1.4-0.2l0-5.7
		c0.1,0,0.5,0,0.8,0c0.2,0,0.3,0,0.5,0c0.7,0,1.5,0.2,2.2,0.7c0.5,0.4,0.9,1.2,0.9,2.3C36.4,48.6,34.9,49.3,33.4,49.3 M35.3,42.6
		c-0.7-0.1-1.7-0.1-2.2,0c-0.6,0-2.5,0.1-3.1,0c0,0,0,0,0,0h0c0.1,0.1,0.1,0.2,0.1,0.3c0,0,0,0.1,0,0.1c0,0,0,0,0,0
		c0,0.1,0,0.2,0,0.2v0v12.3c0,0.3-0.1,0.6-0.4,0.7h0c0,0,0,0,0,0h2.6C32.1,56.2,32,56,32,55.6l0-5.2v-0.7c0.3,0.1,0.8,0.2,1.4,0.2
		c1.9,0.1,3.6-0.4,4.4-1.7c0.3-0.4,0.5-0.9,0.6-1.6c0.1-1.2-0.3-2.1-0.8-2.7C37,43.1,36.1,42.7,35.3,42.6"/>
	<path fill="#D5B329" d="M44.3,49.3C44.3,49.3,44.2,49.3,44.3,49.3c-0.6,0-1.1-0.1-1.4-0.2l0-5.7
		c0.1,0,0.5,0,0.8,0c0.2,0,0.3,0,0.5,0c0.7,0,1.5,0.2,2.2,0.7c0.5,0.4,0.9,1.2,0.9,2.3C47.3,48.6,45.8,49.3,44.3,49.3 M46.3,42.6
		c-0.7-0.1-1.7-0.1-2.2,0c-0.6,0-2.5,0.1-3.1,0c0,0,0,0,0,0h0c0.1,0.1,0.1,0.2,0.1,0.3c0,0,0,0.1,0,0.1c0,0,0,0,0,0
		c0,0.1,0,0.2,0,0.2v0v12.3c0,0.3-0.1,0.6-0.4,0.7h0c0,0,0,0,0,0h2.6c-0.2-0.1-0.4-0.3-0.4-0.7l0-5.2v-0.7c0.3,0.1,0.8,0.2,1.4,0.2
		c1.9,0.1,3.6-0.4,4.4-1.7c0.3-0.4,0.5-0.9,0.6-1.6c0.1-1.2-0.3-2.1-0.8-2.7C47.9,43.1,47,42.7,46.3,42.6"/>
	<path fill="#D5B329" d="M12,53.1v-3.7v-5.5v-0.3c0-0.4,0-0.6,0.1-0.7c0.1-0.2,0.3-0.2,0.3-0.2h-1h-0.1
		h-0.9H9.8c0,0,0.1,0.1,0.3,0.2c0.1,0.1,0.1,0.4,0.1,0.7v0.3v0v3.4v1H2.2v-1v-3.4v0v-0.3c0-0.4,0-0.6,0.1-0.7
		c0.1-0.2,0.3-0.2,0.3-0.2H2H1.5H1.4H0c0,0,0.1,0.1,0.3,0.2c0.1,0.1,0.1,0.4,0.1,0.7v0.3v3.3v3.5V55v0.3c0,0.4,0,0.6-0.1,0.7
		C0.1,56.2,0,56.3,0,56.3h1.4h0.1H2h0.7c0,0-0.1-0.1-0.3-0.2c-0.1-0.1-0.1-0.4-0.1-0.7V55v-1.9v-3.8h7.9v3.8V55v0.3
		c0,0.4,0,0.6-0.1,0.7c-0.1,0.2-0.3,0.2-0.3,0.2h0.7h0.9h0.1h1c0,0-0.1-0.1-0.3-0.2C12,55.9,12,55.7,12,55.3V55V53.1z"/>
	<path fill="#D5B329" d="M60,42.7c0.1,0.1,0.1,0.1,0.1,0.2c0,0.1,0,0.2-0.1,0.2c0,0.1-3.5,6.4-3.5,6.4
		s-3.3-6.2-3.3-6.3c0-0.1-0.1-0.2-0.1-0.3c0-0.1,0.1-0.2,0.2-0.3c0.1-0.1,0.1-0.1,0.2-0.1h-3.3c0.2,0.1,0.3,0.1,0.5,0.3
		c0.2,0.2,0.5,0.5,0.7,0.8l3.8,6.8v4.8c0,0.4,0,0.6-0.1,0.7c-0.1,0.2-0.3,0.2-0.3,0.2h2.6c0,0-0.1-0.1-0.3-0.2
		c-0.1-0.1-0.1-0.4-0.1-0.7l0-4.8l3.7-6.5c0.4-0.6,0.6-1,0.9-1.1c0.3-0.2,0.4-0.3,0.6-0.3h-2.5C59.9,42.7,60,42.7,60,42.7"/>
	<path fill="#D5B329" d="M18.5,51.3c1-2.8,2.2-6.1,2.2-6.1l2.2,6.1H18.5z M26.5,55.4
		c0,0-5-12.8-5.1-12.9c-0.2-0.5-0.4-0.5-0.7,0c0,0.1-4.8,12.3-4.9,12.7c0,0.1-0.2,0.4-0.2,0.4c-0.2,0.3-0.3,0.4-0.4,0.5
		c-0.2,0.1-0.3,0.2-0.5,0.2h2.6c0,0-0.1,0-0.2-0.1C17,56.1,17,56,16.9,55.9c0-0.2,0-0.4,0.1-0.7c0-0.1,0.5-1.4,1.1-3h5.1l1.2,3.3
		c0,0,0,0,0,0c0,0.1,0.1,0.2,0.1,0.3c0,0,0,0.1,0,0.1c0,0.2,0,0.2-0.1,0.3c-0.1,0.1-0.2,0.1-0.3,0.1h3.3c-0.1,0-0.3-0.1-0.5-0.2
		C26.9,55.9,26.7,55.8,26.5,55.4"/>
	<path fill="#D5B329" d="M71.4,47.1c-0.6-0.7-0.8-1.5-0.7-2.1c0.2-1,0.9-1.8,2.2-1.8
		c1.5,0,2.2,0.6,2.8,1.7v-1.4c0-0.1-0.2-0.3-0.4-0.5c-0.8-0.6-1.7-0.8-2.9-0.7c-1.3,0.1-2.7,0.7-3.4,2c-0.6,1.2-0.5,3,1.2,4.4
		c0.9,0.7,1.6,1.1,2.2,1.5c0.6,0.4,1.1,0.7,1.7,1.3c0.8,0.8,1,2,0.6,2.9c-0.3,0.8-1,1.2-1.7,1.4c-0.7,0.2-1.6,0.1-2.3-0.2
		c-0.9-0.4-2.1-1.2-2.6-2.7v1.9c0,0.4,1.2,1.4,2.3,1.8c0.9,0.3,2,0.3,2.9,0.2c1-0.2,1.7-0.6,2.4-1.3c1.2-1.3,1.4-3.6,0-5.1
		C74.2,48.5,72.4,48.2,71.4,47.1"/>
	<path fill="#D5B329" d="M122.5,42.6L122.5,42.6c0,0,0.1,0.1,0.3,0.2c0.1,0.1,0.1,0.4,0.1,0.7v10.7
		l-1.2-1.5l-7.6-10.1h-2.9c0.7,0.2,0.9,0.6,0.9,1.3v11.4c0,0.4,0,0.6-0.1,0.7c-0.1,0.2-0.3,0.2-0.3,0.2h0l0,0h2l0,0h0
		c0,0-0.1-0.1-0.3-0.2c-0.1-0.1-0.1-0.4-0.1-0.7V44.5l6.3,8.4c2.3,3.1,3,3.7,4.4,3.7V43.6c0-0.4,0-0.6,0.1-0.8
		c0.1-0.2,0.3-0.2,0.3-0.2h0H122.5z"/>
	<path fill="#D5B329" d="M96.7,42.9c0.1-0.2,0.3-0.2,0.3-0.2h-2.6c0,0,0.1,0.1,0.3,0.2
		c0.1,0.1,0.1,0.4,0.1,0.7v11.7c0,0.4,0,0.6-0.1,0.7c-0.1,0.2-0.3,0.2-0.3,0.2H97c0,0-0.1-0.1-0.3-0.2c-0.1-0.1-0.1-0.4-0.1-0.7
		V43.6C96.6,43.3,96.6,43,96.7,42.9"/>
	<path fill="#D5B329" d="M91,43.6C91,43.6,91,43.6,91,43.6c-0.7-0.5-1.4-0.8-2.1-1
		c-0.8-0.3-1.6-0.4-2.5-0.4c-1,0-1.9,0.2-2.9,0.5c-0.9,0.3-1.8,0.8-2.5,1.5c-0.8,0.7-1.3,1.5-1.8,2.4c-0.4,0.9-0.6,1.9-0.6,2.9
		c0,2.2,0.7,3.9,2.2,5.3c1.5,1.4,3.3,2,5.6,2c0.2,0,0.4,0,0.6,0c0,0,0.1,0,0.1,0c0.2,0,0.4,0,0.6,0c0,0,0.1,0,0.1,0
		c0.2,0,0.4,0,0.5-0.1c0,0,0,0,0.1,0c0.2,0,0.4-0.1,0.5-0.1v0c0,0,0,0,0.1,0c0,0,0,0,0,0c0.7-0.2,1.4-0.5,2-0.9
		c0.3-0.2,0.4-0.3,0.4-0.6v-1.6v0c-0.3,0.7-0.7,1-1.2,1.5c-0.8,0.7-2,1.1-3.4,1.1c-3.7,0-6.1-2.7-6.1-6.1c0-3.7,2.4-6.5,5.9-6.5
		c0.2,0,0.4,0,0.5,0c1.2,0.1,2.2,0.4,3.1,1.2c0.5,0.5,0.8,0.8,1.2,1.4v-1.5C91.4,43.9,91.3,43.8,91,43.6"/>
	<path fill="#D5B329" d="M139.1,43.6C139.1,43.6,139.1,43.6,139.1,43.6c-0.7-0.5-1.4-0.8-2.1-1
		c-0.8-0.3-1.7-0.4-2.5-0.4c-1,0-1.9,0.2-2.9,0.5c-0.9,0.3-1.8,0.8-2.5,1.5c-0.8,0.7-1.3,1.5-1.8,2.4c-0.4,0.9-0.6,1.9-0.6,2.9
		c0,2.2,0.7,3.9,2.2,5.3c1.5,1.4,3.3,2,5.6,2c0.2,0,0.4,0,0.6,0c0,0,0.1,0,0.1,0c0.2,0,0.4,0,0.6,0c0,0,0.1,0,0.1,0
		c0.2,0,0.4,0,0.5-0.1c0,0,0,0,0.1,0c0.2,0,0.4-0.1,0.5-0.1v0c0,0,0,0,0.1,0c0,0,0,0,0,0c0.7-0.2,1.4-0.5,2-0.9
		c0.3-0.2,0.4-0.3,0.4-0.6v-1.6v0c-0.3,0.7-0.7,1-1.2,1.5c-0.8,0.7-2,1.1-3.4,1.1c-3.7,0-6.1-2.7-6.1-6.1c0-3.7,2.4-6.5,5.9-6.5
		c0.2,0,0.4,0,0.5,0c1.2,0.1,2.2,0.4,3.1,1.2c0.5,0.5,0.8,0.8,1.2,1.4v-1.5C139.5,43.9,139.4,43.8,139.1,43.6"/>
	<path fill="#D5B329" d="M102.8,42.6h-0.5h-0.1H101h-0.4c0,0,0.1,0.1,0.3,0.2c0.1,0.1,0.1,0.4,0.1,0.7
		v0.3v5.7v1.1v0.8v1.6V55v0v0.3c0,0.4,0,0.6-0.1,0.7c-0.1,0.2-0.3,0.2-0.3,0.2l0.4,0h7.5v0v-1.7c0,0.2-0.1,0.4-0.2,0.5
		c-0.1,0.2-0.4,0.2-1.1,0.2h0h-4.3c0,0,0-0.1,0-0.1v0v-0.1v-0.3v0v0v0v-3.7v-1.3v-0.3h2h0.8h0h0.5h0.4c0.4,0,0.6,0,0.7,0.1
		c0.2,0.1,0.2,0.3,0.2,0.3v-0.4v-0.9v-0.4c0,0-0.1,0.1-0.2,0.3c-0.1,0.1-0.4,0.1-0.7,0.1h-0.4h-0.5h0h-1.2h-1.5v-1v-3.7v0v0v-0.3
		c0-0.1,0-0.1,0-0.2h4.3c0.7,0,1,0.1,1.1,0.2c0.1,0.1,0.2,0.3,0.2,0.5v-1.7h-5.3H102.8z"/>
	<path fill="#D5B329" d="M144.3,44.1L144.3,44.1L144.3,44.1v-0.3c0-0.1,0-0.1,0-0.2h4.3
		c0.7,0,1,0.1,1.1,0.2c0.1,0.1,0.2,0.3,0.2,0.5v-1.7h-5.3h-0.5h-0.5h-0.1h-1.1h-0.4c0,0,0.1,0.1,0.3,0.2c0.1,0.1,0.1,0.4,0.1,0.7
		v0.3v5.7v1.1v0.8v1.6V55v0v0.3c0,0.4,0,0.6-0.1,0.7c-0.1,0.2-0.3,0.2-0.3,0.2l0.4,0h7.5v0v-1.7c0,0.2-0.1,0.4-0.2,0.5
		c-0.1,0.2-0.4,0.2-1.1,0.2h0h-4.3c0,0,0-0.1,0-0.1v0v-0.1v-0.3v0v0v0v-3.7v-1.3v-0.3h2h0.8h0h0.5h0.4c0.4,0,0.6,0,0.7,0.1
		c0.2,0.1,0.2,0.3,0.2,0.3v-0.4v-0.9v-0.4c0,0-0.1,0.1-0.2,0.3c-0.1,0.1-0.4,0.1-0.7,0.1h-0.4h-0.5h0h-1.2h-1.5v-1V44.1z"/>
</g>
</svg>
