<?xml version="1.0" encoding="utf-8"?>
<svg version="1.1" id="HAPPY SCIENCE" xmlns="http://www.w3.org/2000/svg" xmlns:xlink="http://www.w3.org/1999/xlink" x="0px"
	 y="0px" width="150px" height="24px" viewBox="0 0 150 24" enable-background="new 0 0 150 24" xml:space="preserve">
<g>
	<path fill="#D5B329" d="M8.3,18.1c0,0.5,0,0.9,0,1.3c0.4,0.1,0.9,0.1,1.3,0.1c1.1,0,2.1-0.1,3-0.4
		c-0.2-0.3-0.5-0.7-0.8-1C10.7,18.4,9.5,18.4,8.3,18.1"/>
	<path fill="#D5B329" d="M5.8,16.9c-1.1-0.7-2-1.7-2.7-3C0.5,9.6,1.7,4.6,5.4,2.4
		c3.8-2.3,8.7-0.9,11.2,3.2c2.5,4.1,1.3,9.2-2.4,11.5c0,0-0.1,0-0.1,0.1c0.2,0.3,0.5,0.6,0.8,0.9c2.8-1.7,4.8-4.7,4.9-8.2
		c0.1-5.4-4.2-9.8-9.6-9.9C4.6-0.1,0.1,4.2,0,9.6c-0.1,4.2,2.3,7.6,5.8,9.1V16.9z"/>
	<path fill="#D5B329" d="M8,6.4c0,0,0.8,0,1.5,0c0.7,0,2.9-0.1,3.1,2.6c0.3,3.4-2.8,3.5-4.6,3.5L8,6.4z
		 M11.5,14.4c-0.5-0.5-1.3-1.2-2-1.5c1.6,0.1,5-0.4,5.2-3.5c0.1-2.8-2-3.6-3.3-3.8c-0.5-0.1-1.5-0.1-2.2,0c-0.7,0.1-2.5,0.1-3.2,0
		c0.2,0.1,0.2,0.6,0.2,0.9l0,16.4c0,0.3-0.1,0.7-0.4,0.8h2.7C8.1,23.5,8,23.3,8,22.8l0-10.3c0.5,0.6,7.6,9.8,8.1,10.5
		c0.3,0.5,0.4,0.5,0.7,0.7h2.8c-0.5-0.2-0.9-0.5-1.4-0.9C17.6,22.2,12,15,11.5,14.4"/>
	<path fill="#D5B329" d="M53.3,17.8C53.3,17.8,53.3,17.8,53.3,17.8c-0.5,0-0.9-0.1-1.1-0.2l0-4.7
		c0.1,0,0.4,0,0.7,0c0.1,0,0.3,0,0.4,0c0.6,0,1.3,0.1,1.8,0.5c0.5,0.4,0.8,1,0.8,1.9C55.8,17.2,54.6,17.8,53.3,17.8 M55,12.3
		c-0.6-0.1-1.4-0.1-1.9,0c-0.5,0-2.1,0.1-2.6,0c0,0,0,0,0,0h0c0.1,0.1,0.1,0.2,0.1,0.3c0,0,0,0,0,0.1c0,0,0,0,0,0c0,0.1,0,0.1,0,0.2
		v0V23c0,0.2,0,0.5-0.3,0.6h0c0,0,0,0,0,0h2.2c-0.2-0.1-0.3-0.3-0.3-0.6l0-4.3v-0.5c0.3,0.1,0.6,0.1,1.2,0.2c1.6,0.1,3-0.4,3.7-1.4
		c0.3-0.4,0.4-0.8,0.5-1.3c0.1-1-0.2-1.7-0.7-2.2C56.3,12.7,55.6,12.4,55,12.3"/>
	<path fill="#D5B329" d="M62.4,17.8C62.4,17.8,62.4,17.8,62.4,17.8c-0.5,0-0.9-0.1-1.1-0.2l0-4.7
		c0.1,0,0.4,0,0.7,0c0.1,0,0.3,0,0.4,0c0.6,0,1.3,0.1,1.8,0.5c0.4,0.4,0.8,1,0.8,1.9C64.9,17.2,63.6,17.8,62.4,17.8 M64,12.3
		c-0.6-0.1-1.4-0.1-1.9,0c-0.5,0-2.1,0.1-2.6,0c0,0,0,0,0,0h0c0.1,0.1,0.1,0.2,0.1,0.3c0,0,0,0,0,0.1c0,0,0,0,0,0c0,0.1,0,0.1,0,0.2
		v0V23c0,0.2,0,0.5-0.3,0.6h0c0,0,0,0,0,0h2.2c-0.2-0.1-0.3-0.3-0.3-0.6l0-4.3v-0.5c0.3,0.1,0.6,0.1,1.2,0.2c1.6,0.1,3-0.4,3.7-1.4
		c0.3-0.4,0.4-0.8,0.5-1.3c0.1-1-0.2-1.7-0.7-2.2C65.4,12.7,64.7,12.4,64,12.3"/>
	<path fill="#D5B329" d="M35.6,21v-3v-4.6v-0.3c0-0.3,0-0.5,0.1-0.6c0.1-0.1,0.2-0.2,0.2-0.2h-0.8H35
		h-0.7h-0.5c0,0,0.1,0.1,0.2,0.2c0.1,0.1,0.1,0.3,0.1,0.6v0.3v0v2.9v0.9h-6.5v-0.9v-2.9v0v-0.3c0-0.3,0-0.5,0.1-0.6
		c0.1-0.1,0.2-0.2,0.2-0.2h-0.5H27h-0.1h-1.2c0,0,0.1,0.1,0.2,0.2c0.1,0.1,0.1,0.3,0.1,0.6v0.3v2.7V19v3.6v0.3c0,0.3,0,0.5-0.1,0.6
		c-0.1,0.1-0.2,0.2-0.2,0.2h1.2H27h0.4h0.5c0,0-0.1-0.1-0.2-0.2c-0.1-0.1-0.1-0.3-0.1-0.6v-0.3V21v-3.1h6.5V21v1.6v0.3
		c0,0.3,0,0.5-0.1,0.6c-0.1,0.1-0.2,0.2-0.2,0.2h0.5H35h0.1h0.8c0,0-0.1-0.1-0.2-0.2c-0.1-0.1-0.1-0.3-0.1-0.6v-0.3V21z"/>
	<path fill="#D5B329" d="M75.4,12.4c0.1,0.1,0.1,0.1,0.1,0.2c0,0.1,0,0.1,0,0.2c0,0.1-2.9,5.3-2.9,5.3
		s-2.7-5.1-2.7-5.2c0-0.1-0.1-0.2-0.1-0.3c0-0.1,0.1-0.2,0.1-0.2c0.1,0,0.1-0.1,0.2-0.1h-2.8c0.1,0,0.2,0.1,0.4,0.2
		c0.2,0.2,0.4,0.4,0.6,0.7l3.2,5.6v4c0,0.3,0,0.5-0.1,0.6c-0.1,0.1-0.2,0.2-0.2,0.2h2.2c0,0-0.1-0.1-0.2-0.2
		c-0.1-0.1-0.1-0.3-0.1-0.6l0-4l3-5.4c0.3-0.5,0.5-0.8,0.7-1c0.2-0.2,0.4-0.2,0.5-0.2h-2.1C75.3,12.4,75.4,12.4,75.4,12.4"/>
	<path fill="#D5B329" d="M41,19.5c0.9-2.3,1.9-5,1.9-5l1.8,5H41z M47.7,22.9c0,0-4.2-10.6-4.2-10.7
		c-0.2-0.4-0.4-0.4-0.6,0c0,0-4,10.2-4.1,10.5c0,0.1-0.1,0.3-0.1,0.3c-0.2,0.3-0.2,0.3-0.4,0.4c-0.2,0.1-0.3,0.2-0.4,0.2H40
		c0,0-0.1,0-0.2-0.1c-0.1-0.1-0.1-0.1-0.1-0.2c0-0.1,0-0.4,0.1-0.6c0-0.1,0.4-1.1,0.9-2.5H45l1,2.7c0,0,0,0,0,0
		c0,0.1,0.1,0.2,0.1,0.2c0,0,0,0.1,0,0.1c0,0.1,0,0.2-0.1,0.2c-0.1,0.1-0.1,0.1-0.2,0.1h2.8c-0.1,0-0.2-0.1-0.4-0.2
		C48,23.3,47.8,23.2,47.7,22.9"/>
	<path fill="#D5B329" d="M84.8,16c-0.5-0.5-0.7-1.2-0.6-1.8c0.1-0.8,0.8-1.5,1.8-1.5
		c1.2,0,1.8,0.5,2.3,1.4v-1.2c0-0.1-0.1-0.2-0.4-0.4c-0.7-0.5-1.4-0.7-2.4-0.6c-1.1,0.1-2.2,0.6-2.8,1.7c-0.5,1-0.4,2.5,1,3.6
		c0.7,0.6,1.3,0.9,1.9,1.2c0.5,0.3,0.9,0.6,1.4,1.1c0.6,0.7,0.8,1.6,0.5,2.4c-0.3,0.7-0.8,1-1.4,1.1c-0.6,0.1-1.3,0.1-1.9-0.2
		c-0.8-0.3-1.7-1-2.1-2.2v1.6c0,0.3,1,1.2,1.9,1.5c0.8,0.2,1.6,0.3,2.4,0.2c0.8-0.1,1.5-0.5,2-1.1c1-1.1,1.1-2.9,0-4.2
		C87.2,17.2,85.7,16.9,84.8,16"/>
	<path fill="#D5B329" d="M127.2,12.3L127.2,12.3c0,0,0.1,0.1,0.2,0.2c0.1,0.1,0.1,0.3,0.1,0.6V22l-1-1.3
		l-6.3-8.4h-2.4c0.6,0.2,0.7,0.5,0.7,1.1v9.4c0,0.3,0,0.5-0.1,0.6c-0.1,0.1-0.2,0.2-0.2,0.2h0l0,0h1.6l0,0h0c0,0-0.1-0.1-0.2-0.2
		c-0.1-0.1-0.1-0.3-0.1-0.6v-9l5.2,7c1.9,2.6,2.5,3.1,3.7,3.1V13.1c0-0.3,0-0.5,0.1-0.6c0.1-0.1,0.2-0.2,0.2-0.2h0H127.2z"/>
	<path fill="#D5B329" d="M105.8,12.5c0.1-0.1,0.2-0.2,0.2-0.2h-2.2c0,0,0.1,0.1,0.2,0.2
		c0.1,0.1,0.1,0.3,0.1,0.6v9.7c0,0.3,0,0.5-0.1,0.6c-0.1,0.1-0.2,0.2-0.2,0.2h2.2c0,0-0.1-0.1-0.2-0.2c-0.1-0.1-0.1-0.3-0.1-0.6
		v-9.7C105.7,12.8,105.7,12.6,105.8,12.5"/>
	<path fill="#D5B329" d="M101.1,13.1C101.1,13.1,101.1,13.1,101.1,13.1c-0.6-0.4-1.1-0.6-1.7-0.8
		c-0.7-0.2-1.4-0.3-2.1-0.3c-0.9,0-1.6,0.1-2.4,0.4c-0.8,0.3-1.5,0.7-2.1,1.2c-0.6,0.6-1.1,1.2-1.5,2c-0.3,0.8-0.5,1.5-0.5,2.4
		c0,1.8,0.6,3.3,1.8,4.4c1.2,1.1,2.7,1.7,4.7,1.7c0.2,0,0.3,0,0.5,0c0,0,0,0,0.1,0c0.2,0,0.3,0,0.5,0c0,0,0,0,0.1,0
		c0.1,0,0.3,0,0.4-0.1c0,0,0,0,0,0c0.1,0,0.3-0.1,0.4-0.1v0c0,0,0,0,0,0c0,0,0,0,0,0c0.6-0.2,1.1-0.4,1.7-0.8
		c0.2-0.1,0.3-0.2,0.3-0.5v-1.3v0c-0.2,0.5-0.6,0.9-1,1.2c-0.7,0.6-1.6,0.9-2.8,0.9c-3.1,0-5.1-2.2-5.1-5.1c0-3,2-5.4,4.9-5.4
		c0.1,0,0.3,0,0.4,0c1,0.1,1.8,0.4,2.5,1c0.4,0.4,0.7,0.7,1,1.2v-1.3C101.4,13.4,101.3,13.3,101.1,13.1"/>
	<path fill="#D5B329" d="M141,13.1C141,13.1,141,13.1,141,13.1c-0.6-0.4-1.1-0.6-1.7-0.8
		c-0.7-0.2-1.4-0.3-2.1-0.3c-0.9,0-1.6,0.1-2.4,0.4c-0.8,0.3-1.5,0.7-2.1,1.2c-0.6,0.6-1.1,1.2-1.5,2c-0.3,0.8-0.5,1.5-0.5,2.4
		c0,1.8,0.6,3.3,1.8,4.4c1.2,1.1,2.7,1.7,4.7,1.7c0.2,0,0.3,0,0.5,0c0,0,0,0,0.1,0c0.2,0,0.3,0,0.5,0c0,0,0,0,0.1,0
		c0.1,0,0.3,0,0.4-0.1c0,0,0,0,0,0c0.1,0,0.3-0.1,0.4-0.1v0c0,0,0,0,0,0c0,0,0,0,0,0c0.6-0.2,1.1-0.4,1.7-0.8
		c0.2-0.1,0.3-0.2,0.3-0.5v-1.3v0c-0.2,0.5-0.5,0.9-1,1.2c-0.7,0.6-1.6,0.9-2.8,0.9c-3.1,0-5.1-2.2-5.1-5.1c0-3,2-5.4,4.9-5.4
		c0.1,0,0.3,0,0.4,0c1,0.1,1.8,0.4,2.5,1c0.4,0.4,0.7,0.7,1,1.2v-1.3C141.3,13.4,141.2,13.3,141,13.1"/>
	<path fill="#D5B329" d="M110.9,12.3h-0.4h-0.1h-0.9h-0.3c0,0,0.1,0.1,0.2,0.2c0.1,0.1,0.1,0.3,0.1,0.6
		v0.3v4.8V19v0.6V21v1.6v0v0.2c0,0.3,0,0.5-0.1,0.6c-0.1,0.1-0.2,0.2-0.2,0.2l0.3,0h6.2v0v-1.4c0,0.2-0.1,0.3-0.2,0.4
		c-0.1,0.1-0.3,0.2-0.9,0.2h0h-3.6c0,0,0,0,0-0.1v0v-0.1v-0.2v0v0v0v-3v-1v-0.2h1.6h0.6h0h0.4h0.3c0.3,0,0.5,0,0.6,0.1
		c0.1,0.1,0.2,0.2,0.2,0.2v-0.3v-0.8v-0.3c0,0-0.1,0.1-0.2,0.2c-0.1,0.1-0.3,0.1-0.6,0.1h-0.3h-0.4h0h-1h-1.3v-0.8v-3v0v0v-0.2
		c0-0.1,0-0.1,0-0.2h3.6c0.6,0,0.8,0.1,0.9,0.2c0.1,0.1,0.2,0.3,0.2,0.4v-1.4h-4.4H110.9z"/>
	<path fill="#D5B329" d="M145.3,13.5L145.3,13.5L145.3,13.5v-0.3c0-0.1,0-0.1,0-0.2h3.6
		c0.6,0,0.8,0.1,0.9,0.2c0.1,0.1,0.2,0.3,0.2,0.4v-1.4h-4.4h-0.4h-0.4h-0.1h-0.9h-0.3c0,0,0.1,0.1,0.2,0.2c0.1,0.1,0.1,0.3,0.1,0.6
		v0.2v4.8V19v0.6V21v1.6v0v0.2c0,0.3,0,0.5-0.1,0.6c-0.1,0.1-0.2,0.2-0.2,0.2l0.3,0h6.2v0v-1.4c0,0.2-0.1,0.3-0.2,0.4
		c-0.1,0.1-0.3,0.2-0.9,0.2h0h-3.6c0,0,0,0,0-0.1v0v-0.1v-0.2v0v0v0v-3v-1v-0.2h1.6h0.6h0h0.4h0.3c0.3,0,0.5,0,0.6,0.1
		c0.1,0.1,0.2,0.2,0.2,0.2v-0.3v-0.8v-0.3c0,0-0.1,0.1-0.2,0.2c-0.1,0.1-0.3,0.1-0.6,0.1H148h-0.4h0h-1h-1.3v-0.8V13.5z"/>
</g>
</svg>
